<?xml version="1.0" encoding="utf-8"?>
<!-- Generator: Adobe Illustrator 22.1.0, SVG Export Plug-In . SVG Version: 6.00 Build 0)  -->
<svg version="1.1"
	 id="Layer_1" inkscape:version="1.1 (c68e22c387, 2021-05-23)" sodipodi:docname="maple.svg" xmlns:inkscape="http://www.inkscape.org/namespaces/inkscape" xmlns:sodipodi="http://sodipodi.sourceforge.net/DTD/sodipodi-0.dtd" xmlns:svg="http://www.w3.org/2000/svg"
	 xmlns="http://www.w3.org/2000/svg" xmlns:xlink="http://www.w3.org/1999/xlink" x="0px" y="0px" viewBox="0 0 361.5 303"
	 style="enable-background:new 0 0 361.5 303;" xml:space="preserve">
<style type="text/css">
	.st0{fill:none;stroke:url(#path33967_1_);stroke-miterlimit:10;}
	.st1{fill:none;stroke:url(#path33982_1_);stroke-miterlimit:10;}
	.st2{fill:url(#path34010_1_);stroke:url(#path34010_2_);stroke-miterlimit:10;}
	.st3{fill:url(#path34038_1_);stroke:url(#path34038_2_);stroke-miterlimit:10;}
	.st4{fill:url(#path34049_1_);}
	.st5{fill:url(#path34060_1_);}
</style>
<sodipodi:namedview  bordercolor="#666666" borderopacity="1.0" id="namedview34065" inkscape:current-layer="Layer_1" inkscape:cx="465.79259" inkscape:cy="222.39847" inkscape:pagecheckerboard="0" inkscape:pageopacity="0.0" inkscape:pageshadow="2" inkscape:window-height="1046" inkscape:window-maximized="1" inkscape:window-width="1800" inkscape:window-x="-9" inkscape:window-y="-9" inkscape:zoom="1.9289701" pagecolor="#ffffff" showgrid="false">
	</sodipodi:namedview>
<linearGradient id="path33967_1_" gradientUnits="userSpaceOnUse" x1="64.3111" y1="659.4257" x2="207" y2="659.4257" gradientTransform="matrix(1 0 0 -1 0 680)">
	<stop  offset="0" style="stop-color:#AD8B59"/>
	<stop  offset="0.2994" style="stop-color:#AE8D5B"/>
	<stop  offset="0.5464" style="stop-color:#B49663"/>
	<stop  offset="0.774" style="stop-color:#BEA56F"/>
	<stop  offset="0.99" style="stop-color:#CFBE84"/>
	<stop  offset="1" style="stop-color:#D0BF85"/>
</linearGradient>
<path id="path33967" class="st0" d="M64.9,5.2l15.3,15.3L94.6,6.1v30h-4.2V17.7L79.5,28.6L64.9,14V6.5C64.7,6.5,64.9,5.2,64.9,5.2z
	 M112.5,18l4.1,7.6h5.6l-9.9-20.3L97,36h6.1L112.5,18z M121.7,36.1h6l-2.8-4.6h-5.6L121.7,36.1z M130.9,6.4l5.2,4.9h11.2
	c0,0,8.9,5.2,0,9.2h-15.7v16h5.3v-9.9h13.6c0,0,16-9.8-1.5-20.5L130.9,6.4z M161,29.7l5.6-4.6V5.9h-5.9L161,29.7z M161.5,35.9H181
	v-5h-15.8L161.5,35.9z M185.1,18.2v5.7h20.6V18L185.1,18.2z M185.1,6.2l5.1,5.1h16.3V5.6L185.1,6.2z M184.8,36.5H206v-5.4h-16.6
	l-4,4.6L184.8,36.5z"/>
<linearGradient id="path33982_1_" gradientUnits="userSpaceOnUse" x1="221.9895" y1="658.0916" x2="355.9537" y2="658.0916" gradientTransform="matrix(1 0 0 -1 0 680)">
	<stop  offset="0" style="stop-color:#AD8B59"/>
	<stop  offset="0.2994" style="stop-color:#AE8D5B"/>
	<stop  offset="0.5464" style="stop-color:#B49663"/>
	<stop  offset="0.774" style="stop-color:#BEA56F"/>
	<stop  offset="0.99" style="stop-color:#CFBE84"/>
	<stop  offset="1" style="stop-color:#D0BF85"/>
</linearGradient>
<path id="path33982" class="st1" d="M222.8,6.1h5.7l10.1,18.2l-3.1,7.1L222.8,6.1z M256.7,37.2l15.4-31.1h-6.6L256.2,24L250,11.5
	l-3.1,6.1L256.7,37.2z M276,6.1l4,5h15.9V6L276,6.1z M275.7,18.3V24h20.2v-6L275.7,18.3z M295.6,36.7V31h-15.5l-4.2,5L295.6,36.7z
	 M300.2,7l4.8,4.8h11.9c0,0,5.5,3.4,0.2,6h-16.5v5.9h16.9c0,0,4.9,4.1,0,6.9h-12.6v5.7h14.4c0,0,11.8-4.1,4.1-14.6
	c0,0,6.7-10-3.3-15.4h-20.6L300.2,7z M329.7,11.9v5.4c-0.1,7,6.2,7.1,6.2,7.1h9c8,2.3,0.6,7,0.6,7v4.9h4.5c12.5-10-0.4-18-0.4-18
	h-10.9c-5.4-3.2,0-7.5,0-7.5V6.2C332.2,4.7,329.7,11.9,329.7,11.9z"/>
<linearGradient id="path34010_1_" gradientUnits="userSpaceOnUse" x1="63.1" y1="506.05" x2="170.6784" y2="506.05" gradientTransform="matrix(1 0 0 -1 0 680)">
	<stop  offset="0" style="stop-color:#AD8B59"/>
	<stop  offset="0.4089" style="stop-color:#AE8D5A"/>
	<stop  offset="0.619" style="stop-color:#B29360"/>
	<stop  offset="0.7838" style="stop-color:#BA9F6A"/>
	<stop  offset="0.9241" style="stop-color:#C5B079"/>
	<stop  offset="1" style="stop-color:#D0BF85"/>
</linearGradient>
<linearGradient id="path34010_2_" gradientUnits="userSpaceOnUse" x1="62.4414" y1="506.05" x2="171.1784" y2="506.05" gradientTransform="matrix(1 0 0 -1 0 680)">
	<stop  offset="0" style="stop-color:#AD8B59"/>
	<stop  offset="0.2994" style="stop-color:#AE8D5B"/>
	<stop  offset="0.5464" style="stop-color:#B49663"/>
	<stop  offset="0.774" style="stop-color:#BEA56F"/>
	<stop  offset="0.99" style="stop-color:#CFBE84"/>
	<stop  offset="1" style="stop-color:#D0BF85"/>
</linearGradient>
<path id="path34010" class="st2" d="M170.6,59.2v13c0,0,0.9,3.7-3.4,4h-38.7c0,0-9.6,0.3-9.9,9.3v57.4l-27.3,30.8l26.9,32.6v53.2
	c0,0-2.9,10.9,9.7,11.4h42.3v21.2h-56.7c0,0-21.7-0.6-21.2-18.9V208l-29.2-33.8l29.7-34.9V71.2c0,0,4-14.9,24-15.4H170L170.6,59.2z"
	/>
<linearGradient id="path34038_1_" gradientUnits="userSpaceOnUse" x1="-108.9013" y1="506.05" x2="-1.3229" y2="506.05" gradientTransform="matrix(-1 0 0 -1 219.8987 680)">
	<stop  offset="0" style="stop-color:#AD8B59"/>
	<stop  offset="0.4089" style="stop-color:#AE8D5A"/>
	<stop  offset="0.619" style="stop-color:#B29360"/>
	<stop  offset="0.7838" style="stop-color:#BA9F6A"/>
	<stop  offset="0.9241" style="stop-color:#C5B079"/>
	<stop  offset="1" style="stop-color:#D0BF85"/>
</linearGradient>
<linearGradient id="path34038_2_" gradientUnits="userSpaceOnUse" x1="-109.5599" y1="506.05" x2="-0.8229" y2="506.05" gradientTransform="matrix(-1 0 0 -1 219.8987 680)">
	<stop  offset="0" style="stop-color:#AD8B59"/>
	<stop  offset="0.2994" style="stop-color:#AE8D5B"/>
	<stop  offset="0.5464" style="stop-color:#B49663"/>
	<stop  offset="0.774" style="stop-color:#BEA56F"/>
	<stop  offset="0.99" style="stop-color:#CFBE84"/>
	<stop  offset="1" style="stop-color:#D0BF85"/>
</linearGradient>
<path id="path34038" class="st3" d="M221.3,59.2v13c0,0-0.9,3.7,3.4,4h38.8c0,0,9.6,0.3,9.9,9.3v57.4l27.3,30.8l-26.9,32.6v53.2
	c0,0,2.9,10.9-9.7,11.4h-42.3v21.2h56.6c0,0,21.7-0.6,21.2-18.9V208l29.2-33.8l-29.7-34.9V71.2c0,0-4-14.9-24-15.4h-53.2L221.3,59.2
	z"/>
<g id="g34062">
	
		<linearGradient id="path34049_1_" gradientUnits="userSpaceOnUse" x1="27.1549" y1="533.1752" x2="53.0089" y2="533.1752" gradientTransform="matrix(1 0 0 -1 0 680)">
		<stop  offset="0" style="stop-color:#AD8B59"/>
		<stop  offset="3.443012e-02" style="stop-color:#AF8E5D"/>
		<stop  offset="0.5028" style="stop-color:#CFBF91"/>
		<stop  offset="1" style="stop-color:#B19160"/>
	</linearGradient>
	<path id="path34049" class="st4" d="M27.8,130.7c0.8-0.7,1.5-1.4,2.2-2.2c0.6-0.7,1.1-1.5,1.1-2.5c0-0.4,0.1-0.8,0.2-1.2
		c0.1-0.5,0.5-0.8,0.9-0.7c0.5,0.1,0.8,0.5,0.8,1c0,0.4-0.1,0.8-0.2,1.2c-0.3,1.1-0.2,2.2,0.2,3.3c0.6,1.8,1.4,3.5,2.5,5.1
		c1.3,1.8,2.8,3.2,4.7,4.4c0.3,0.2,0.5,0.2,0.8,0c1.8-1.3,3.7-2.6,5.6-3.9c0.3-0.2,0.5-0.4,0.9-0.3c0.4,0.1,0.6,0.3,0.7,0.7
		c0.1,0.4-0.1,0.7-0.4,0.9c-0.6,0.4-1.2,0.8-1.8,1.2c-1.4,1-2.7,1.9-4.1,2.8c-0.2,0.1-0.1,0.3-0.1,0.4c0.6,1.6,1.3,3.2,2.1,4.7
		c0.6,1.1,1.3,2.2,2.1,3.2c0.9,1.1,2,2.2,3.1,3.1c0.6,0.5,1.3,0.5,2,0.7c0.4,0.1,0.9,0.2,1.3,0.2c0.5,0.1,0.8,0.5,0.7,0.9
		c0,0.4-0.3,0.8-0.8,0.8c-0.4,0.1-0.7,0-1.1-0.1c-1.6-0.5-3.1-0.2-4.6,0.4c-3.6,1.3-6.5,3.6-8.7,6.8c-0.2,0.3-0.2,0.5,0,0.7
		c1.3,1.8,2.5,3.7,3.8,5.6c0,0.1,0.1,0.1,0.1,0.2c0.3,0.5,0.2,1-0.2,1.3s-0.9,0.2-1.2-0.3c-0.8-1.1-1.5-2.2-2.2-3.3
		c-0.6-0.8-1.1-1.6-1.7-2.4c-0.1-0.2-0.2-0.3-0.5-0.2c-1.9,0.7-3.7,1.5-5.5,2.5c-0.4,0.3-0.8,0.5-1.3,0.8c-0.2-0.7,0-1.4-0.1-2
		c0.2-0.1,0.4-0.3,0.7-0.4c1.6-0.9,3.3-1.7,5-2.4c0.2-0.1,0.4-0.1,0.2-0.4c-1.1-1.5-2.1-3-3.1-4.6c-0.2-0.2-0.3-0.2-0.5-0.2
		c-0.7,0.2-1.3,0.4-1.9,0.8c-0.8,0.4-1.5,0.9-2,1.7c-0.1-0.2-0.1-0.3-0.1-0.5c0-0.6,0-1.2,0-1.8c0.8-0.7,1.6-1.1,2.5-1.5
		c0.8-0.3,0.8-0.3,0.3-1c-0.6-0.9-1.2-1.7-1.8-2.6c0-0.1-0.1-0.2-0.2-0.2c-0.1,0-0.1,0.1-0.1,0.2c-0.1,0.5-0.1,1-0.3,1.5
		c-0.2,0.7-0.2,1.4-0.4,2c-0.1-0.2-0.1-0.4-0.1-0.6c0-2.2,0-4.5,0-6.7c0-0.4,0-0.7-0.1-1c0.3-1.8,0.6-3.5,1-5.3h-0.1
		c-0.2,0.2-0.5,0.4-0.7,0.6c-0.1-0.7,0.1-1.4-0.1-2.1c0.2-0.2,0.4-0.4,0.6-0.7c0.4-0.5,0.9-1,1-1.6c0.4-2.3,0.9-4.6,1.3-7
		c-0.2,0-0.3,0.2-0.5,0.3c-0.6,0.6-1.1,1.1-1.8,1.6c0-0.2-0.1-0.3,0-0.5C27.8,131.8,27.8,131.2,27.8,130.7z M40.1,141.9
		c-0.6,0.4-1.1,0.7-1.7,1.1c-1,0.8-2.1,1.4-3.1,2.2c-0.2,0.1-0.3,0.3-0.2,0.5c0.4,1.5,1.1,2.8,2.3,3.9c0.7,0.6,1.4,1,2.3,1.2
		c1.7,0.3,3.5,0.6,5.2,0.9c0.3,0.1,0.6,0.1,1.1,0.2C43.2,149,41.4,145.6,40.1,141.9z M38.9,140.5c-3.3-2.2-5.6-5.1-7.1-8.8
		c-0.4,1.7-0.7,3.5-1,5.2c-0.1,0.8-0.4,1.6-0.3,2.6c0.3,2,1.5,3.4,3.2,4.3c0.1,0.1,0.2,0.1,0.4,0C35.6,142.8,37.2,141.7,38.9,140.5z
		 M45.3,153.6c-0.2-0.1-0.3-0.1-0.3-0.1c-1.9-0.3-3.7-0.7-5.6-1c-0.7-0.1-1.5-0.3-2.2-0.1c-1.8,0.3-3,1.4-3.9,3
		c-0.1,0.3-0.1,0.4,0,0.7c1,1.4,2,2.8,2.9,4.3c0.2,0.4,0.3,0.4,0.6,0c1.4-2,3.1-3.7,5.2-5C43,154.7,44.1,154.1,45.3,153.6z
		 M35.2,149.9c-0.1-0.1-0.1-0.2-0.1-0.2c-0.7-0.9-1.3-1.9-1.6-3c-0.1-0.3-0.2-0.2-0.4-0.1c-0.9,0.6-1.8,1.2-2.7,1.9
		c-0.2,0.1-0.4,0.2-0.6,0.5C31.7,149.3,33.4,149.6,35.2,149.9z M29.8,142.6c0,0.1-0.1,0.1-0.1,0.2c-0.3,1.5-0.6,2.9-0.9,4.4
		c0,0.1,0,0.2,0.1,0.2s0.2,0,0.2-0.1c0.8-0.5,1.6-1.1,2.4-1.6c0.3-0.2,0.5-0.4,0.9-0.6C31.3,144.4,30.5,143.6,29.8,142.6z
		 M29.6,150.7c0.8,1.1,1.5,2.2,2.2,3.2c0.2,0.2,0.2,0,0.3-0.1c0.4-0.6,0.9-1.2,1.5-1.7c0.2-0.2,0.4-0.3,0.7-0.5
		C32.8,151.3,31.3,151,29.6,150.7z"/>
	
		<linearGradient id="path34060_1_" gradientUnits="userSpaceOnUse" x1="2.3256" y1="527.9423" x2="29.1859" y2="527.9423" gradientTransform="matrix(1 0 0 -1 0 680)">
		<stop  offset="0" style="stop-color:#AD8B59"/>
		<stop  offset="3.443012e-02" style="stop-color:#AF8E5D"/>
		<stop  offset="0.5028" style="stop-color:#CFBF91"/>
		<stop  offset="1" style="stop-color:#B19160"/>
	</linearGradient>
	<path id="path34060" class="st5" d="M27.2,140.2c0.2,0.7,0,1.4,0.1,2.1c-0.7,0.5-1.4,0.8-2.2,1.1c-0.3,0.1-0.4,0.2-0.2,0.5
		c0.4,0.5,0.7,1,1.1,1.5c0.4,0.6,0.7,1.2,1.2,1.7c0.1,0.3,0.1,0.7,0.1,1c0,2.2,0,4.5,0,6.7c0,0.2,0,0.4,0.1,0.6c0,0.3,0,0.5-0.1,0.7
		c0,0.3-0.2,0.5,0,0.8c0,0.6,0,1.2,0,1.8c0,0.2,0,0.4,0.1,0.5c-0.1,0.1-0.2,0.3-0.3,0.4c-0.3,0.4-0.6,0.8-0.6,1.3
		c-0.3,1.5-0.5,3-0.8,4.5c-0.1,0.7-0.3,1.5-0.4,2.2c0.2,0,0.3-0.2,0.4-0.3c1.1-1,2.3-1.9,3.5-2.7c0,0.7-0.1,1.4,0.1,2
		c-1.3,0.9-2.5,1.9-3.6,3.1c-0.4,0.4-0.7,0.8-1,1.3s-0.3,1.1-0.4,1.7c-0.1,0.3-0.1,0.7-0.2,1c-0.1,0.5-0.6,0.9-1,0.8
		c-0.5-0.1-0.8-0.6-0.7-1.2c0.1-0.7,0.2-1.3,0.4-2c0.2-0.8-0.2-1.6-0.4-2.3c-0.8-2.6-2.1-5-4-7c-1-1-2-1.9-3.2-2.7
		c-0.2-0.2-0.4-0.1-0.6,0c-1.8,1.3-3.7,2.6-5.5,3.9c-0.3,0.2-0.5,0.4-0.8,0.3c-0.4-0.1-0.6-0.3-0.7-0.6c-0.1-0.4,0-0.7,0.4-1
		c1-0.7,2-1.4,3.1-2.1c0.9-0.6,1.8-1.2,2.6-1.8c0.2-0.1,0.3-0.2,0.2-0.5c-1.1-2.8-2.3-5.5-4.2-8c-0.9-1.1-1.9-2.1-3-3
		c-0.6-0.5-1.4-0.6-2.2-0.7c-0.4-0.1-0.8-0.1-1.2-0.2c-0.5-0.1-0.8-0.6-0.7-1c0.1-0.5,0.5-0.8,1.1-0.7c0.4,0.1,0.9,0.1,1.3,0.2
		c1.1,0.3,2.1,0.2,3.1-0.1c2.6-0.8,5-2.1,7-4c1-1,2-2.1,2.7-3.3c0.1-0.2,0.1-0.4,0-0.6c-1.1-1.6-2.3-3.3-3.4-4.9
		c-0.1-0.2-0.3-0.4-0.3-0.6c0-0.4,0.2-0.8,0.5-0.9c0.4-0.2,0.8-0.1,1.1,0.3c0.3,0.4,0.5,0.8,0.8,1.2c0.9,1.3,1.8,2.6,2.7,3.9
		c0.2,0.2,0.3,0.3,0.6,0.2c3-1.1,5.8-2.5,8.3-4.5c0,0.5,0,1.1,0,1.6c0,0.2,0,0.3,0,0.5c-0.9,0.7-1.9,1.3-3,1.9
		c-1.4,0.8-2.9,1.5-4.4,2c-0.3,0.1-0.4,0.2-0.2,0.5c1,1.5,2,3,3,4.4c0.2,0.2,0.3,0.3,0.6,0.2C25.2,141.6,26.2,141,27.2,140.2z
		 M9.3,146.9c2.8,2.9,4.4,6.4,5.9,10c1.6-1.1,3.3-2.2,4.9-3.4c0.2-0.1,0.1-0.2,0.1-0.4c-0.5-1.8-1.5-3.3-2.9-4.5
		c-0.4-0.3-0.8-0.5-1.4-0.6c-1-0.1-2-0.4-3.1-0.6C11.7,147.3,10.5,147.1,9.3,146.9z M23.4,167C23.4,167,23.5,167,23.4,167
		c0.3-1.5,0.6-2.9,0.9-4.3c0.1-0.8,0.4-1.5,0.4-2.3c0.1-2.4-1-4.2-3.1-5.4c-0.2-0.1-0.4-0.1-0.6,0c-1.5,1-2.9,2-4.4,3.1
		c-0.3,0.2-0.2,0.3,0,0.4c0.8,0.5,1.4,1.1,2.1,1.7c1.6,1.4,2.9,3.1,3.9,5.1C22.9,165.8,23.1,166.4,23.4,167z M10.1,145.2v0.1
		c1.8,0.3,3.6,0.6,5.4,0.9c0.8,0.1,1.6,0.3,2.4,0.1c1.9-0.3,3.2-1.5,4.1-3.1c0.1-0.2,0.1-0.3,0-0.5c-1-1.5-2-2.9-3-4.4
		c-0.2-0.3-0.3-0.2-0.4,0c-0.9,1.4-2.1,2.5-3.3,3.7c-1.3,1.2-2.9,2.1-4.5,2.9C10.6,145,10.3,145.1,10.1,145.2z M20,148.9
		c0.1,0.1,0.1,0.2,0.1,0.2c0.7,0.9,1.2,1.9,1.6,3c0.1,0.3,0.2,0.3,0.4,0.1c0.8-0.6,1.6-1.1,2.4-1.7c0.3-0.2,0.6-0.3,0.8-0.6
		C23.5,149.5,21.8,149.2,20,148.9z M26.4,151.3c-1.2,0.8-2.3,1.6-3.5,2.4c1,0.6,1.9,1.5,2.6,2.5C25.8,154.6,26.1,153,26.4,151.3z
		 M25.7,148.1c-0.8-1.2-1.5-2.2-2.2-3.3c-0.2-0.2-0.2-0.1-0.3,0.1c-0.4,0.7-0.9,1.2-1.6,1.8c-0.2,0.2-0.5,0.4-0.8,0.6
		C22.4,147.5,24,147.8,25.7,148.1z"/>
</g>
</svg>
